<svg width="234" height="231" viewBox="0 0 234 231" fill="none" xmlns="http://www.w3.org/2000/svg">
<path d="M154.658 224.904C164.236 224.091 171.342 215.667 170.529 206.089L154.347 113.036C153.534 103.458 145.11 96.3525 135.532 97.1656C125.954 97.9787 118.849 106.403 119.662 115.981L135.843 209.034C136.657 218.612 145.081 225.717 154.658 224.904Z" fill="#CFCFCF" stroke="#262525" stroke-width="1.07791" stroke-linecap="round" stroke-linejoin="round"/>
<path d="M156.932 111.952L173.576 202.86C175.486 213.294 169.041 223.439 158.785 226.144C147.356 229.159 135.779 221.809 133.643 210.183L116.947 119.283C114.903 108.155 122.351 97.5044 133.505 95.6047L133.557 95.596C144.512 93.7306 154.931 101.02 156.932 111.951V111.952Z" fill="white" stroke="#262525" stroke-width="1.07791" stroke-linecap="round" stroke-linejoin="round"/>
<path d="M222.721 116.258C215.079 110.427 204.157 111.894 198.326 119.536L139.209 197.002C133.378 204.644 134.845 215.566 142.486 221.397C150.128 227.229 161.05 225.761 166.882 218.12L225.998 140.653C231.83 133.012 230.362 122.09 222.721 116.258Z" fill="#CFCFCF" stroke="#262525" stroke-width="1.07791" stroke-linecap="round" stroke-linejoin="round"/>
<path d="M137.206 195.077L171.799 146.435C172.79 145.043 174.342 144.156 176.045 144.01L176.838 143.942L176.59 141.994C176.494 141.245 176.688 140.489 177.133 139.879L179.432 136.725C180.515 135.238 182.444 134.635 184.182 135.239L185.839 135.816L186.375 137.191C190.328 147.326 200.109 153.986 210.988 153.947L215.804 153.93L216.553 154.889C217.888 156.596 218.036 158.947 216.926 160.808L216.559 161.422C216.022 162.323 215.172 162.994 214.171 163.307L212.552 163.815L169.483 219.109C162.754 227.749 150.351 229.421 141.573 222.873C132.808 216.334 130.869 203.991 137.207 195.079L137.206 195.077Z" fill="white"/>
<path d="M141.867 188.524L171.799 146.435C172.79 145.043 174.342 144.156 176.045 144.01L176.839 143.942L176.59 141.994C176.495 141.245 176.689 140.489 177.133 139.879L179.432 136.725C180.516 135.238 182.444 134.635 184.182 135.239L185.839 135.816L186.375 137.191C190.328 147.326 200.11 153.986 210.988 153.947L215.804 153.93L216.554 154.889C217.888 156.596 218.036 158.947 216.926 160.808L216.56 161.422C216.022 162.323 215.172 162.994 214.171 163.307L212.553 163.815L169.484 219.109C162.754 227.749 150.351 229.421 141.574 222.873C138.034 220.232 135.608 216.645 134.39 212.72C134.39 212.72 133.641 210.166 133.346 208.561C133.051 206.955 132.866 205.947 132.866 205.947" stroke="#262525" stroke-width="1.07791" stroke-linecap="round" stroke-linejoin="round"/>
<path d="M176.839 143.942C176.839 143.942 182.337 155.218 191.577 160.086" stroke="#262525" stroke-width="1.07791" stroke-linecap="round" stroke-linejoin="round"/>
<path d="M212.552 163.813C212.552 163.813 207.06 164.608 201.603 161.926" stroke="#262525" stroke-width="1.07791" stroke-linecap="round" stroke-linejoin="round"/>
<path d="M87.5837 93.9517L96.9774 95.8326C101.222 96.6826 105.352 93.9302 106.202 89.6859L113.007 55.6976C113.857 51.4526 111.105 47.3226 106.86 46.4732L97.4666 44.5923C93.2217 43.7423 89.0916 46.4947 88.2423 50.739L81.4371 84.7273C80.587 88.9723 83.3394 93.1023 87.5837 93.9517Z" fill="#CFCFCF" stroke="#262525" stroke-width="1.07791" stroke-linecap="round" stroke-linejoin="round"/>
<path d="M92.4321 56.4522L94.8217 44.5178C95.6784 44.3955 96.5695 44.4129 97.4666 44.5924L106.86 46.4732C111.105 47.3233 113.857 51.4533 113.007 55.6976L107.49 83.2523C96.1603 80.9837 89.9417 68.8907 92.4321 56.4522Z" fill="#262525" stroke="#262525" stroke-width="1.07791" stroke-linecap="round" stroke-linejoin="round"/>
<path d="M110.035 79.0787C119.286 81.5368 128.778 76.0306 131.236 66.7793L139.803 34.5415C143.014 22.4552 135.82 10.0537 123.734 6.84161C111.647 3.63019 99.246 10.8245 96.0339 22.9108L90.1963 44.8793C86.2309 59.8015 95.1132 75.1126 110.035 79.078V79.0787Z" fill="#CFCFCF" stroke="#262525" stroke-width="1.07791" stroke-linecap="round" stroke-linejoin="round"/>
<path d="M137.089 44.7523C137.089 44.7523 141.762 37.1864 144.471 31.0324C147.181 24.8783 145.596 17.3682 142.352 16.5061C142.352 16.5061 138.87 4.41031 118.627 0.964373C98.383 -2.48157 93.2826 16.1412 93.2826 16.1412C93.2826 16.1412 88.2192 16.6216 84.7551 23.2199C81.291 29.8181 83.6813 40.7204 85.1751 42.3741C85.1751 42.3741 81.082 51.8364 86.929 57.2956L89.4933 48.9784L96.3348 39.3173C96.3348 39.3173 98.9562 28.8235 102.204 26.1914C106.619 22.6117 106.907 17.1834 106.907 17.1834C106.907 17.1834 112.485 14.5842 117.615 19.1698C122.6 23.6251 123.351 36.6441 138.976 37.6548L137.09 44.753L137.089 44.7523Z" fill="#262525" stroke="#262525" stroke-width="1.07791" stroke-linecap="round" stroke-linejoin="round"/>
<path d="M116.315 44.9317C116.315 44.9317 114.671 38.908 105.606 40.4643" stroke="#262525" stroke-width="1.07791" stroke-linecap="round" stroke-linejoin="round"/>
<path d="M110.801 42.5697C110.443 43.9177 111.199 44.2578 112.176 44.5171C113.152 44.7765 113.978 44.8572 114.336 43.5092C114.816 41.7042 114.024 41.4939 113.048 41.2345C112.072 40.9751 111.275 40.787 110.801 42.5697Z" fill="#262525"/>
<path d="M125.321 47.3247C125.321 47.3247 129.738 42.9111 136.834 48.7621" stroke="#262525" stroke-width="1.07791" stroke-linecap="round" stroke-linejoin="round"/>
<path d="M133.114 48.4435C132.756 49.7916 131.93 49.7109 130.953 49.4515C129.977 49.1921 129.22 48.8521 129.578 47.5041C130.058 45.6992 130.849 45.9095 131.826 46.1689C132.802 46.4283 133.588 46.6608 133.114 48.4435Z" fill="#262525"/>
<path d="M122.748 43.1066C122.748 43.1066 122.9 52.4263 122.325 57.938C122.252 58.6355 121.611 59.1341 120.917 59.0299C119.645 58.8398 115.876 57.6611 115.876 57.6611" stroke="#262525" stroke-width="1.07791" stroke-linecap="round" stroke-linejoin="round"/>
<path d="M112.498 63.8454C105.754 62.1655 104.643 56.0168 104.643 56.0168" stroke="#262525" stroke-width="1.07791" stroke-linecap="round" stroke-linejoin="round"/>
<path d="M110.391 36.7791L115.236 38.0666C115.897 38.242 116.575 37.8489 116.751 37.1877C116.926 36.5265 116.533 35.8484 115.872 35.6724L111.028 34.3848C110.367 34.2094 109.689 34.6026 109.512 35.2638C109.336 35.925 109.73 36.6031 110.391 36.7791Z" fill="#262525" stroke="#262525" stroke-width="1.07791" stroke-linecap="round" stroke-linejoin="round"/>
<path d="M129.17 41.7692L134.015 43.0568C134.676 43.2321 135.354 42.839 135.53 42.1778C135.706 41.5166 135.312 40.8385 134.651 40.6625L129.807 39.3749C129.146 39.1996 128.468 39.5927 128.292 40.2539C128.116 40.9151 128.509 41.5932 129.17 41.7692Z" fill="#262525" stroke="#262525" stroke-width="1.07791" stroke-linecap="round" stroke-linejoin="round"/>
<path d="M84.5655 44.9149L88.6545 48.3803C91.9829 51.2013 97.1148 49.5912 98.2357 45.3745C98.825 43.1583 98.0852 40.8003 96.3353 39.3179L92.2463 35.8525C88.918 33.0315 83.786 34.6416 82.6651 38.8583C82.0765 41.0745 82.8157 43.4325 84.5655 44.9149Z" fill="#CFCFCF"/>
<path d="M97.3554 40.4346C97.0684 40.0261 96.7271 39.6498 96.3346 39.3171L92.2456 35.8517C88.9172 33.0307 83.7853 34.6408 82.6644 38.8575C82.0758 41.0737 82.8149 43.4317 84.5648 44.9141L88.6538 48.3795C89.0731 48.735 89.522 49.0206 89.987 49.239" stroke="#262525" stroke-width="1.07791" stroke-linecap="round" stroke-linejoin="round"/>
<path d="M92.425 45.9981C93.1689 45.4538 93.7381 44.6602 93.9934 43.6999C94.5861 41.4683 93.2583 39.1788 91.0266 38.5861C89.5563 38.195 88.0605 38.6392 87.0417 39.6257" stroke="#262525" stroke-width="1.07791" stroke-linecap="round" stroke-linejoin="round"/>
<path d="M94.0376 42.9997C93.5807 42.6146 93.1674 42.3572 92.5519 42.1939C91.1575 41.8237 89.7403 42.2034 88.7283 43.085" stroke="#262525" stroke-width="1.07791" stroke-linecap="round" stroke-linejoin="round"/>
<path d="M123.088 227.187H13.8928L33.9973 89.6495C35.0819 82.7812 41.205 77.8602 48.1459 78.2789L82.2808 80.3385L107.08 85.3038L141.833 97.8491C148.319 100.19 151.999 107.043 150.367 113.742L123.089 227.188L123.088 227.187Z" fill="#CFCFCF"/>
<path d="M107.08 85.3037L141.833 97.849C148.319 100.19 151.999 107.042 150.367 113.742L123.089 227.188H13.8928L33.9973 89.6501C35.0819 82.7818 41.205 77.8608 48.1459 78.2795L82.3137 80.3451" stroke="#262525" stroke-width="1.07791" stroke-linecap="round" stroke-linejoin="round"/>
<path d="M71.4561 279.58L70.721 256.613C70.2553 242.059 81.9284 230.006 96.4903 230.006C111.052 230.006 122.725 242.059 122.26 256.613L121.524 279.58H71.4555H71.4561Z" fill="#CFCFCF" stroke="#262525" stroke-width="1.07791" stroke-linecap="round" stroke-linejoin="round"/>
<path d="M66.1011 281.554H123.912L124.474 255.911C124.82 240.15 112.139 227.187 96.3741 227.187C80.6093 227.187 64.4003 240.492 65.0616 256.458L66.1011 281.554Z" fill="#262525" stroke="#262525" stroke-width="1.07791" stroke-linecap="round" stroke-linejoin="round"/>
<path d="M13.8931 227.188L14.7801 266.141H122.202L123.089 227.188H13.8931Z" fill="#CFCFCF" stroke="#262525" stroke-width="1.07791" stroke-linecap="round" stroke-linejoin="round"/>
<path d="M124.211 267.941L126.329 206.672L12.2732 202.547L10.4441 221.839L10.7572 267.941H124.211Z" fill="#262525" stroke="#262525" stroke-width="1.07791" stroke-linecap="round" stroke-linejoin="round"/>
<path d="M13.5326 279.58L12.7974 256.613C12.3317 242.059 24.0048 230.006 38.5667 230.006C53.1286 230.006 64.8017 242.059 64.3353 256.613L63.6009 279.58H13.5326Z" fill="#CFCFCF" stroke="#262525" stroke-width="1.07791" stroke-linecap="round" stroke-linejoin="round"/>
<path d="M65.589 281.554H11.14L10.4546 257.208C10.0138 241.538 22.596 228.597 38.2721 228.597C53.9482 228.597 66.4169 241.409 66.095 256.999L65.5883 281.553L65.589 281.554Z" fill="#262525" stroke="#262525" stroke-width="1.07791" stroke-linecap="round" stroke-linejoin="round"/>
<path d="M32.3495 89.1436L12.3626 197.017C10.4233 207.485 9.13037 218.061 8.49198 228.687L6.80127 256.826H20.8437L25.0316 229.996C25.9414 224.166 27.909 218.55 30.8368 213.426L33.8265 208.193L32.334 218.756C32.0014 221.11 31.8428 223.485 31.8583 225.862L32.0666 256.825H128.719L129.346 218.39L152.513 114.541C154.326 106.411 149.688 98.2289 141.782 95.6088L110.739 85.3234C110.069 85.1009 109.344 85.3912 109.011 86.0142C107.865 88.1612 104.828 92.7327 99.7597 92.7327C90.3781 92.7327 82.6866 83.8443 79.9798 80.2801C79.2749 79.3521 78.2091 78.7836 77.0453 78.7131L47.9328 76.9558C40.4066 76.5016 33.723 81.7283 32.3495 89.1416V89.1436Z" fill="white"/>
<path opacity="0.3" d="M148.633 131.933L129.347 218.39L128.72 256.825H32.0673L31.8589 225.863C31.8428 223.485 32.0021 221.111 32.3347 218.757L33.8272 208.194L30.8375 213.427C27.9097 218.55 25.9421 224.166 25.0322 229.997L20.8444 256.826H6.80127L8.49198 228.688C9.13037 218.062 10.4233 207.485 12.3626 197.018L32.3495 89.1442C33.723 81.7308 40.4073 76.5041 47.9328 76.9584L77.0453 78.7156C78.2085 78.7855 79.2749 79.3547 79.9798 80.2827C82.6866 83.8469 90.3781 92.7353 99.7597 92.7353C104.828 92.7353 107.865 88.1637 109.011 86.0167C109.344 85.3938 110.069 85.1035 110.739 85.3259L141.782 95.6114C142.487 95.8452 143.165 96.1227 143.816 96.4406C143.816 96.4406 148.171 98.2187 150.192 100.212" stroke="#262525" stroke-width="1.07791" stroke-linecap="round" stroke-linejoin="round"/>
<path d="M132.147 205.841L12.3403 197.153C12.3484 197.107 12.3544 197.062 12.3632 197.018L20.0527 155.515L139.625 172.319L132.147 205.842V205.841Z" fill="#262525" stroke="#262525" stroke-width="1.07791" stroke-linecap="round" stroke-linejoin="round"/>
<path d="M20.0525 155.514L139.625 172.318L137.782 180.579L17.8752 167.265L20.0525 155.514Z" fill="white" stroke="#262525" stroke-width="1.07791" stroke-linecap="round" stroke-linejoin="round"/>
<path d="M132.147 205.841L12.3403 197.152C12.3484 197.107 12.3544 197.062 12.3632 197.018L14.9772 182.913L134.606 194.819L132.147 205.842L132.147 205.841Z" fill="white" stroke="#262525" stroke-width="1.07791" stroke-linecap="round" stroke-linejoin="round"/>
<path d="M14.3587 203.452C23.4157 206.673 33.3685 201.942 36.59 192.886L60.3426 101.471C63.5635 92.4143 58.8327 82.4615 49.7763 79.24C40.7193 76.0192 30.7665 80.75 27.545 89.8063L3.79237 181.221C0.571548 190.278 5.30232 200.231 14.3587 203.452V203.452Z" fill="#CFCFCF" stroke="#262525" stroke-width="1.07791" stroke-linecap="round" stroke-linejoin="round"/>
<path d="M64.0357 102.229L40.4752 191.568C37.7705 201.824 27.6255 208.269 17.1916 206.359C5.56492 204.231 -1.79198 192.657 1.21583 181.226L24.7252 91.8733C27.6081 80.9173 38.8907 74.4326 49.8084 77.4572C60.532 80.4281 66.8735 91.4688 64.0357 102.229V102.229Z" fill="white"/>
<path d="M60.4258 115.917L40.4752 191.568C37.7705 201.824 27.6255 208.269 17.1916 206.359C5.56492 204.231 -1.79198 192.657 1.21583 181.226L24.7252 91.8733C27.3997 81.7088 37.3048 75.3928 47.4404 76.9485L52.2652 77.2179" stroke="#262525" stroke-width="1.07791" stroke-linecap="round" stroke-linejoin="round"/>
<path d="M124.13 138.311C120.02 129.621 109.645 125.908 100.955 130.018L12.863 171.679C4.17355 175.789 0.460159 186.164 4.57002 194.854C8.67989 203.544 19.0553 207.257 27.7455 203.147L115.837 161.487C124.527 157.377 128.24 147.001 124.13 138.311Z" fill="#CFCFCF" stroke="#262525" stroke-width="1.07791" stroke-linecap="round" stroke-linejoin="round"/>
<path d="M12.0276 168.12L62.028 144.059C62.8586 143.659 63.7913 143.524 64.7005 143.67L66.3832 143.942L66.4846 143.184C66.6069 142.268 67.1909 141.478 68.0316 141.093L71.8135 139.361C73.4431 138.614 75.3643 139.407 75.9932 141.085L76.2278 141.712L76.3198 144.704C76.6578 155.72 83.793 165.372 94.2262 168.926L97.6426 170.09L98.2675 171.342C98.9328 172.674 98.5914 174.288 97.445 175.238L96.6864 175.866C95.6502 176.724 94.3465 177.194 93.0005 177.194H91.8857L29.004 204.941C18.6776 209.497 6.61746 204.744 2.17698 194.366C-2.0908 184.391 2.24955 172.824 12.0263 168.119L12.0276 168.12Z" fill="white"/>
<path d="M66.3838 143.942C66.3838 143.942 66.3838 159.143 73.9349 166.583" stroke="#262525" stroke-width="1.07791" stroke-linecap="round" stroke-linejoin="round"/>
<path d="M91.887 177.194C91.887 177.194 86.6199 176.002 82.7117 172.226" stroke="#262525" stroke-width="1.07791" stroke-linecap="round" stroke-linejoin="round"/>
<path d="M19.1549 164.69L62.0289 144.058C62.8595 143.658 63.7922 143.523 64.7014 143.67L66.384 143.941L66.4855 143.183C66.6078 142.267 67.1918 141.478 68.0324 141.093L71.8144 139.36C73.4439 138.614 75.3651 139.406 75.9941 141.085L76.2286 141.711L76.3207 144.703C76.6587 155.72 83.7938 165.372 94.2271 168.926L97.6435 170.09L98.2684 171.342C98.9337 172.673 98.5923 174.287 97.4459 175.237L96.6872 175.865C95.651 176.723 94.3474 177.193 93.0014 177.193H91.8866L29.0048 204.94C18.6784 209.497 6.61832 204.743 2.17784 194.366C0.178007 189.691 0.0684736 184.668 1.52265 180.164L3.71668 171.719" stroke="#262525" stroke-width="1.07791" stroke-linecap="round" stroke-linejoin="round"/>
<path d="M120.115 160.041L107.104 160.086C96.6724 160.121 88.1872 151.694 88.1516 141.262L88.0864 122.2L128.716 122.061L128.721 123.539C128.737 127.99 132.357 131.586 136.808 131.571L138.906 131.563L138.939 141.088C138.975 151.52 130.547 160.005 120.115 160.041L120.115 160.041Z" fill="#CFCFCF"/>
<path d="M96.0666 156.574C91.2922 153.161 88.1721 147.579 88.1506 141.262L88.0854 122.2L128.715 122.061L128.72 123.539C128.736 127.99 132.357 131.586 136.807 131.571L138.905 131.563L138.938 141.088C138.974 151.52 130.546 160.005 120.114 160.041L118.274 160.086C118.274 160.086 116.897 160.979 116.092 161.363" stroke="#262525" stroke-width="1.07791" stroke-linecap="round" stroke-linejoin="round"/>
<path d="M128.72 123.458L118.562 123.493L118.468 101.062C118.458 98.2568 120.724 95.9754 123.529 95.9653C126.334 95.9559 128.616 98.2218 128.625 101.027L128.72 123.458Z" fill="#CFCFCF"/>
<path d="M118.563 123.493L118.468 101.062C118.459 98.2569 120.725 95.9755 123.529 95.9654C126.334 95.956 128.616 98.222 128.626 101.027L128.721 123.458" fill="#CFCFCF"/>
<path d="M118.563 123.493L118.468 101.062C118.459 98.2569 120.725 95.9755 123.529 95.9654C126.334 95.956 128.616 98.222 128.626 101.027L128.721 123.458" stroke="#262525" stroke-width="1.07791" stroke-linecap="round" stroke-linejoin="round"/>
<path d="M119.907 104.564C117.959 102.562 117.993 99.363 119.984 97.4029L126.24 91.271C128.25 89.3148 131.465 89.3585 133.421 91.3684C135.377 93.3783 135.334 96.5938 133.324 98.5499L127.11 104.64C125.103 106.616 121.872 106.582 119.908 104.563L119.907 104.564Z" fill="#CFCFCF"/>
<path d="M128.64 104.486L128.635 103.146L133.324 98.55C135.334 96.5939 135.377 93.3784 133.421 91.3685C131.465 89.3586 128.25 89.3149 126.24 91.2711L119.983 97.4029C118.964 98.4062 118.458 99.7354 118.468 101.062V104.417" fill="#CFCFCF"/>
<path d="M128.64 104.486L128.635 103.146L133.324 98.55C135.334 96.5939 135.377 93.3784 133.421 91.3685C131.465 89.3586 128.25 89.3149 126.24 91.2711L119.983 97.4029C118.964 98.4062 118.458 99.7354 118.468 101.062V104.417" stroke="#262525" stroke-width="1.07791" stroke-linecap="round" stroke-linejoin="round"/>
<path d="M128.635 103.147L125.066 102.279" stroke="#262525" stroke-width="1.07791" stroke-linecap="round" stroke-linejoin="round"/>
<path d="M118.563 123.493L108.405 123.528L108.297 113.403C108.287 110.598 110.553 108.317 113.358 108.307C116.163 108.297 118.445 110.563 118.455 113.368L118.563 123.493Z" fill="#CFCFCF"/>
<path d="M108.405 123.527L108.297 113.402C108.287 110.597 110.553 108.316 113.358 108.306C116.163 108.296 118.445 110.562 118.455 113.367L118.563 123.492" fill="#CFCFCF"/>
<path d="M108.405 123.527L108.297 113.402C108.287 110.597 110.553 108.316 113.358 108.306C116.163 108.296 118.445 110.562 118.455 113.367L118.563 123.492" stroke="#262525" stroke-width="1.07791" stroke-linecap="round" stroke-linejoin="round"/>
<path d="M120.91 120.963C118.922 122.934 115.714 122.924 113.738 120.942L109.77 116.961C107.795 114.969 107.808 111.754 109.8 109.779C111.792 107.804 115.007 107.818 116.982 109.809L120.931 113.771C122.915 115.762 122.906 118.985 120.91 120.963Z" fill="#CFCFCF"/>
<path d="M110.181 117.374L113.738 120.942C115.714 122.925 118.923 122.934 120.91 120.963C122.906 118.985 122.916 115.761 120.931 113.771L116.982 109.809C115.007 107.818 111.791 107.804 109.8 109.779C108.794 110.776 108.292 112.09 108.297 113.403L108.331 116.599" fill="#CFCFCF"/>
<path d="M110.181 117.374L113.738 120.942C115.714 122.925 118.923 122.934 120.91 120.963C122.906 118.985 122.916 115.761 120.931 113.771L116.982 109.809C115.007 107.818 111.791 107.804 109.8 109.779C108.794 110.776 108.292 112.09 108.297 113.403L108.331 116.599" stroke="#262525" stroke-width="1.07791" stroke-linecap="round" stroke-linejoin="round"/>
<path d="M117.415 131.933C114.622 131.942 112.345 129.694 112.32 126.901L112.259 117.364C112.249 114.559 114.515 112.278 117.32 112.268C120.125 112.258 122.406 114.524 122.416 117.329L122.477 126.807C122.504 129.623 120.233 131.923 117.417 131.932L117.415 131.933Z" fill="#CFCFCF"/>
<path d="M112.264 118.409L112.319 126.901C112.344 129.695 114.621 131.942 117.415 131.933C120.231 131.924 122.501 129.624 122.475 126.808L122.414 117.33C122.409 115.779 121.709 114.393 120.61 113.465L118.742 111.576" fill="#CFCFCF"/>
<path d="M112.264 118.409L112.319 126.901C112.344 129.695 114.621 131.942 117.415 131.933C120.231 131.924 122.501 129.624 122.475 126.808L122.414 117.33C122.409 115.779 121.709 114.393 120.61 113.465L118.742 111.576" stroke="#262525" stroke-width="1.07791" stroke-linecap="round" stroke-linejoin="round"/>
<path d="M108.405 123.527L98.2469 123.562L98.1521 113.402C98.1427 110.597 100.409 108.316 103.214 108.306C106.018 108.296 108.3 110.562 108.31 113.367L108.405 123.527Z" fill="#CFCFCF"/>
<path d="M98.2476 123.562L98.1529 113.402C98.1435 110.597 100.409 108.316 103.214 108.306C106.019 108.296 108.301 110.562 108.311 113.367L108.405 123.527" fill="#CFCFCF"/>
<path d="M98.2476 123.562L98.1529 113.402C98.1435 110.597 100.409 108.316 103.214 108.306C106.019 108.296 108.301 110.562 108.311 113.367L108.405 123.527" stroke="#262525" stroke-width="1.07791" stroke-linecap="round" stroke-linejoin="round"/>
<path d="M110.766 120.963C108.778 122.934 105.57 122.924 103.593 120.942L99.6253 116.961C97.6503 114.969 97.6638 111.754 99.6555 109.779C101.647 107.804 104.863 107.817 106.838 109.809L110.787 113.771C112.771 115.762 112.761 118.984 110.766 120.963Z" fill="#CFCFCF"/>
<path d="M100.397 117.736L103.593 120.942C105.57 122.925 108.778 122.934 110.766 120.963C112.762 118.984 112.771 115.761 110.787 113.771L106.838 109.809C104.863 107.817 101.647 107.804 99.6554 109.779C98.6495 110.776 98.1482 112.09 98.1529 113.403L98.1831 116.677" fill="#CFCFCF"/>
<path d="M100.397 117.736L103.593 120.942C105.57 122.925 108.778 122.934 110.766 120.963C112.762 118.984 112.771 115.761 110.787 113.771L106.838 109.809C104.863 107.817 101.647 107.804 99.6554 109.779C98.6495 110.776 98.1482 112.09 98.1529 113.403L98.1831 116.677" stroke="#262525" stroke-width="1.07791" stroke-linecap="round" stroke-linejoin="round"/>
<path d="M107.208 130.146C104.414 130.155 102.137 127.907 102.112 125.114L102.051 117.364C102.041 114.56 104.307 112.278 107.112 112.268C109.917 112.259 112.198 114.525 112.209 117.329L112.27 125.02C112.296 127.836 110.025 130.136 107.209 130.145L107.208 130.146Z" fill="#CFCFCF"/>
<path d="M102.051 118.206L102.112 125.114C102.137 127.907 104.414 130.155 107.208 130.146C110.024 130.136 112.295 127.837 112.268 125.02L112.207 117.33C112.202 115.936 111.637 114.676 110.725 113.761L108.755 111.734" fill="#CFCFCF"/>
<path d="M102.051 118.206L102.112 125.114C102.137 127.907 104.414 130.155 107.208 130.146C110.024 130.136 112.295 127.837 112.268 125.02L112.207 117.33C112.202 115.936 111.637 114.676 110.725 113.761L108.755 111.734" stroke="#262525" stroke-width="1.07791" stroke-linecap="round" stroke-linejoin="round"/>
<path d="M98.2482 124.985L88.0904 125.02L88.0259 114.826C88.0165 112.021 90.2824 109.739 93.0873 109.729C95.8922 109.72 98.1736 111.986 98.1836 114.791L98.2482 124.985Z" fill="#CFCFCF"/>
<path d="M88.0904 125.02L88.0259 114.826C88.0165 112.021 90.2824 109.739 93.0873 109.729C95.8922 109.72 98.1736 111.986 98.1836 114.791L98.2482 124.985" fill="#CFCFCF"/>
<path d="M88.0904 125.02L88.0259 114.826C88.0165 112.021 90.2824 109.739 93.0873 109.729C95.8922 109.72 98.1736 111.986 98.1836 114.791L98.2482 124.985" stroke="#262525" stroke-width="1.07791" stroke-linecap="round" stroke-linejoin="round"/>
<path d="M100.639 122.386C98.6514 124.357 95.4427 124.347 93.4664 122.365L89.4983 118.384C87.5234 116.392 87.5368 113.177 89.5286 111.202C91.5203 109.227 94.7358 109.241 96.7108 111.232L100.66 115.194C102.644 117.185 102.634 120.408 100.639 122.386Z" fill="#CFCFCF"/>
<path d="M89.8792 118.766L93.4662 122.365C95.4425 124.348 98.6513 124.358 100.639 122.386C102.635 120.408 102.644 117.184 100.66 115.194L96.7106 111.232C94.7356 109.241 91.5202 109.227 89.5284 111.202C88.4606 112.261 87.9613 113.676 88.0325 115.069V118.172" fill="#CFCFCF"/>
<path d="M89.8792 118.766L93.4662 122.365C95.4425 124.348 98.6513 124.358 100.639 122.386C102.635 120.408 102.644 117.184 100.66 115.194L96.7106 111.232C94.7356 109.241 91.5202 109.227 89.5284 111.202C88.4606 112.261 87.9613 113.676 88.0325 115.069V118.172" stroke="#262525" stroke-width="1.07791" stroke-linecap="round" stroke-linejoin="round"/>
<path d="M97.1063 129.37C94.3129 129.379 92.0362 127.132 92.0106 124.338L91.9495 118.788C91.9401 115.983 94.206 113.701 97.0109 113.691C99.8158 113.682 102.097 115.948 102.107 118.753L102.168 124.245C102.195 127.061 99.9239 129.361 97.1077 129.37H97.1063Z" fill="#CFCFCF"/>
<path d="M91.9495 118.788L92.0106 124.338C92.0361 127.132 94.3128 129.379 97.1063 129.37C99.9226 129.361 102.193 127.061 102.167 124.245L102.106 118.753C102.1 117.257 101.45 115.916 100.418 114.99L98.5705 113.099" fill="#CFCFCF"/>
<path d="M91.9495 118.788L92.0106 124.338C92.0361 127.132 94.3128 129.379 97.1063 129.37C99.9226 129.361 102.193 127.061 102.167 124.245L102.106 118.753C102.1 117.257 101.45 115.916 100.418 114.99L98.5705 113.099" stroke="#262525" stroke-width="1.07791" stroke-linecap="round" stroke-linejoin="round"/>
<path d="M136.832 144.508L127.077 141.677L133.627 119.109C134.408 116.415 137.226 114.866 139.92 115.647C142.614 116.429 144.163 119.246 143.382 121.94L136.833 144.508H136.832Z" fill="#CFCFCF"/>
<path d="M138.93 138.854L138.924 137.297L143.381 121.94C144.163 119.246 142.613 116.429 139.919 115.647C137.225 114.865 134.407 116.415 133.626 119.109L130.169 131.019L122.892 136.412C118.935 139.344 116.602 143.977 116.602 148.902V150.885" fill="#CFCFCF"/>
<path d="M138.93 138.854L138.924 137.297L143.381 121.94C144.163 119.246 142.613 116.429 139.919 115.647C137.225 114.865 134.407 116.415 133.626 119.109L130.169 131.019L122.892 136.412C118.935 139.344 116.602 143.977 116.602 148.902V150.885" stroke="#262525" stroke-width="1.07791" stroke-linecap="round" stroke-linejoin="round"/>
<path d="M143.39 121.943C142.611 124.626 139.812 126.176 137.125 125.413L129.673 123.287C126.979 122.505 125.43 119.688 126.211 116.994C126.993 114.3 129.81 112.75 132.504 113.532L139.9 115.642C142.609 116.411 144.175 119.238 143.39 121.943Z" fill="#CFCFCF"/>
<path d="M134.569 124.683L129.673 123.286C126.979 122.505 125.43 119.687 126.211 116.993C126.993 114.299 129.81 112.75 132.504 113.531L139.9 115.641C142.609 116.411 144.175 119.238 143.39 121.942L142.348 125.503" fill="#CFCFCF"/>
<path d="M134.569 124.683L129.673 123.286C126.979 122.505 125.43 119.687 126.211 116.993C126.993 114.299 129.81 112.75 132.504 113.531L139.9 115.641C142.609 116.411 144.175 119.238 143.39 121.942L142.348 125.503" stroke="#262525" stroke-width="1.07791" stroke-linecap="round" stroke-linejoin="round"/>
<path d="M229.256 102.373L221.892 110.383L203.362 93.3482C201.15 91.3148 201.005 87.8735 203.039 85.6614C205.072 83.4492 208.514 83.3047 210.726 85.3382L229.256 102.373Z" fill="#CFCFCF" stroke="#262525" stroke-width="1.07791" stroke-linecap="round" stroke-linejoin="round"/>
<path d="M160.641 154.429H198.591C200.522 154.429 202.154 152.996 202.402 151.08L212.52 73.0603C212.818 70.7607 211.027 68.7233 208.709 68.7233H170.759C168.828 68.7233 167.196 70.1566 166.948 72.0718L156.83 150.092C156.532 152.392 158.323 154.429 160.641 154.429Z" fill="white" stroke="#262525" stroke-width="1.07791" stroke-linecap="round" stroke-linejoin="round"/>
<path d="M163.269 154.429H201.218C203.15 154.429 204.781 152.996 205.029 151.08L215.147 73.0602C215.446 70.7607 213.655 68.7232 211.336 68.7232H173.387C171.455 68.7232 169.824 70.1566 169.576 72.0717L159.458 150.092C159.159 152.391 160.95 154.429 163.269 154.429Z" fill="#262525" stroke="#262525" stroke-width="1.07791" stroke-linecap="round" stroke-linejoin="round"/>
<path d="M173.146 88.7315H178.879C179.715 88.7315 180.422 88.114 180.534 87.2854L181.952 76.8139C182.087 75.8113 181.308 74.9196 180.296 74.9196H174.563C173.727 74.9196 173.02 75.5371 172.908 76.3657L171.491 86.8372C171.355 87.8398 172.135 88.7315 173.146 88.7315Z" fill="white" stroke="#262525" stroke-width="1.07791" stroke-linecap="round" stroke-linejoin="round"/>
<path d="M232.821 114.256L229.832 131.707C227.945 142.721 217.487 150.12 206.474 148.233L197.508 146.697L204.855 103.801L206.312 104.05C210.569 104.779 214.815 102.703 216.854 98.8955L218.854 95.1599L219.373 95.2486C228.335 96.7841 234.355 105.293 232.821 114.256V114.256Z" fill="#CFCFCF"/>
<path d="M219.837 93.7144L222.524 96.1141C229.696 98.8739 234.168 106.391 232.821 114.256L229.832 131.706C229.3 134.813 228.086 137.632 226.369 140.036C226.369 140.036 225.469 141.655 224.288 143.101C223.107 144.547 221.175 146.973 221.175 146.973" stroke="#262525" stroke-width="1.07791" stroke-linecap="round" stroke-linejoin="round"/>
<path d="M216.125 100.059C213.905 103.117 210.113 104.702 206.312 104.051L204.855 103.802L197.508 146.698L206.474 148.234C209.907 148.822 213.285 148.508 216.366 147.464" stroke="#262525" stroke-width="1.07791" stroke-linecap="round" stroke-linejoin="round"/>
<path d="M200.96 136.25L199.122 146.974L179.191 143.559C176.229 143.052 174.24 140.241 174.747 137.279C175.254 134.318 178.066 132.329 181.027 132.835L200.959 136.25H200.96Z" fill="#CFCFCF"/>
<path d="M199.123 146.974L179.191 143.559C176.229 143.052 174.24 140.241 174.747 137.279C175.254 134.318 178.066 132.329 181.027 132.835L200.959 136.25" stroke="#262525" stroke-width="1.07791" stroke-linecap="round" stroke-linejoin="round"/>
<path d="M202.797 125.525L200.96 136.25L171.837 131.261C168.875 130.754 166.886 127.943 167.393 124.981C167.9 122.02 170.712 120.031 173.673 120.537L202.796 125.525H202.797Z" fill="#CFCFCF"/>
<path d="M200.96 136.25L171.837 131.261C168.875 130.754 166.886 127.943 167.393 124.981C167.9 122.02 170.712 120.031 173.673 120.537L202.796 125.525" stroke="#262525" stroke-width="1.07791" stroke-linecap="round" stroke-linejoin="round"/>
<path d="M204.634 114.802L202.796 125.526L169.573 119.835C166.611 119.328 164.622 116.516 165.129 113.555C165.636 110.593 168.448 108.604 171.409 109.111L204.633 114.802H204.634Z" fill="#CFCFCF"/>
<path d="M202.797 125.525L169.574 119.834C166.612 119.327 164.623 116.515 165.13 113.554C165.637 110.593 168.449 108.603 171.41 109.11L204.634 114.801" stroke="#262525" stroke-width="1.07791" stroke-linecap="round" stroke-linejoin="round"/>
<path d="M206.471 104.078L204.633 114.802L175.51 109.814C172.549 109.306 170.56 106.495 171.066 103.533C171.573 100.572 174.385 98.5828 177.347 99.0895L206.47 104.078H206.471Z" fill="#CFCFCF"/>
<path d="M204.633 114.802L175.51 109.814C172.549 109.306 170.56 106.495 171.066 103.533C171.573 100.572 174.385 98.5828 177.347 99.0895L206.47 104.078" stroke="#262525" stroke-width="1.07791" stroke-linecap="round" stroke-linejoin="round"/>
</svg>
